<?xml version="1.0" encoding="utf-8"?>
<!-- Generator: Adobe Illustrator 26.0.0, SVG Export Plug-In . SVG Version: 6.00 Build 0)  -->
<svg version="1.1" id="Layer_1" xmlns="http://www.w3.org/2000/svg" xmlns:xlink="http://www.w3.org/1999/xlink" x="0px" y="0px"
	 viewBox="0 0 300 159" style="enable-background:new 0 0 300 159;" xml:space="preserve">
<style type="text/css">
	.st0{fill:#00A651;}
	.st1{fill:#FAA61A;}
	.st2{fill:#F7941D;}
	.st3{fill:#FFFFFF;}
</style>
<g>
	<path class="st0" d="M28.4,119.2c-7.2,0-14-3.6-20.5-10.8l-7.9,9c3.4,4.3,7.6,7.7,12.7,10.1c5.1,2.4,10.5,3.7,16.1,3.7
		c8.5,0,15.5-2.8,21.2-8.3c5.6-5.6,8.5-12.3,8.5-20.4c0-5.7-1.7-10.8-5-15.3c-3.4-4.5-9.7-9.2-19.1-14c-7.7-3.9-12.7-7.4-15.1-10.3
		c-2.4-2.9-3.6-5.9-3.6-9.1c0-3.6,1.5-6.7,4.4-9.4c2.9-2.7,6.4-4,10.5-4c6.4,0,13,3.3,19.7,9.8l8.1-8.3
		c-9.1-8.8-18.2-13.2-27.2-13.2c-7.7,0-14.1,2.5-19.2,7.4S4.4,46.9,4.4,54.3C4.4,60,6,65.1,9.2,69.5c3.2,4.4,9.2,8.9,18,13.5
		c8.2,4.2,13.5,7.7,15.9,10.4c2.3,2.8,3.5,6,3.5,9.6c0,4.4-1.8,8.2-5.3,11.4C37.7,117.6,33.4,119.2,28.4,119.2z"/>
	<rect x="69.6" y="31" class="st0" width="12.6" height="97.6"/>
	<rect x="97.2" y="31" class="st0" width="12.6" height="97.6"/>
	<rect x="283.4" y="31" width="12.6" height="97.6"/>
	<polygon class="st1" points="121.3,85.7 130.2,94.5 161.9,62.9 153.1,54 	"/>
	<path class="st2" d="M75.9,20.7c2.9,0,5.3-1,7.3-3c2-2,3-4.4,3-7.3c0-2.9-1-5.3-3-7.4c-2-2-4.5-3.1-7.3-3.1c-2.8,0-5.2,1-7.2,3
		c-2,2-3.1,4.5-3.1,7.4c0,2.8,1,5.2,3.1,7.3C70.6,19.7,73.1,20.7,75.9,20.7z"/>
	<path d="M103.5,20.7c2.9,0,5.3-1,7.3-3c2-2,3.1-4.4,3.1-7.3c0-2.9-1-5.3-3.1-7.4c-2-2-4.5-3.1-7.3-3.1c-2.8,0-5.2,1-7.2,3
		s-3.1,4.5-3.1,7.4c0,2.8,1,5.2,3.1,7.3C98.3,19.7,100.7,20.7,103.5,20.7z"/>
	<path class="st3" d="M297,3c-2-2-4.5-3-7.3-3c-2.8,0-5.2,1-7.2,3c-2,2-3,4.5-3,7.4c0,2.8,1,5.2,3,7.3c2,2,4.4,3,7.2,3
		c2.9,0,5.3-1,7.3-3s3-4.4,3-7.3C300,7.5,299,5.1,297,3z"/>
	<polygon class="st2" points="141.9,43.6 172.6,43.6 172.6,74.2 185.1,74.2 185.1,49 185.1,31 141.9,31 	"/>
</g>
<path d="M259.6,43.5c-9.9-10-21.8-15-35.6-15c-8,0-15.2,1.7-21.6,5.1c-6.5,3.4-12.2,8.5-17.1,15.3v25.2h-12.6V159h12.6v-47.1
	c5.3,6.4,11.2,11.2,17.7,14.4c6.5,3.2,13.7,4.9,21.5,4.9c13.8,0,25.6-5,35.4-15c9.8-10,14.7-22.2,14.7-36.6
	C274.4,65.5,269.4,53.5,259.6,43.5z M255.9,99.4c-3.5,6.2-8.2,11-14,14.4c-5.9,3.4-12.1,5.2-18.8,5.2c-6.8,0-13.2-1.7-19.3-5.1
	c-6.1-3.4-10.8-8-14.1-13.9c-3.3-5.8-4.9-12.4-4.9-19.7c0-11.1,3.7-20.5,11-27.9c7.4-7.5,16.4-11.2,27.1-11.2
	c6.9,0,13.3,1.7,19.1,5.1c5.8,3.4,10.5,8.2,13.9,14.3c3.4,6.1,5.2,12.6,5.2,19.5C261.1,86.8,259.4,93.2,255.9,99.4z"/>
</svg>
